<mxfile host="app.diagrams.net" modified="2023-12-13T15:19:26.704Z" agent="Mozilla/5.0 (Macintosh; Intel Mac OS X 10_15_7) AppleWebKit/537.36 (KHTML, like Gecko) Chrome/120.0.0.0 Safari/537.36" version="22.1.7" etag="Uwu0xxI3mFDAFm8j-IJD" type="github">
  <diagram name="ページ1" id="irWsvYECM1lIOD1nJP4h">
    <mxGraphModel>
      <root>
        <mxCell id="0" />
        <mxCell id="1" parent="0" />
      </root>
    </mxGraphModel>
  </diagram>
</mxfile>
